<svg width="221" height="44" viewBox="0 0 221 44" fill="none" xmlns="http://www.w3.org/2000/svg">
<rect x="0.5" width="220" height="44" rx="22" fill="#7C53A5"/>
<path d="M92.0034 21.61V27H90.6594L90.3374 25.936C89.8334 26.734 88.8814 27.322 87.5514 27.322C85.0314 27.322 83.0154 25.25 83.0154 22.016C83.0154 18.782 85.0034 16.794 87.6634 16.794C90.1274 16.794 91.5974 18.082 91.9334 20.182L89.9034 20.308C89.7214 19.258 88.9934 18.586 87.7754 18.586C86.0394 18.586 85.0874 19.972 85.0874 22.016C85.0874 24.116 86.0534 25.53 87.7754 25.53C89.0074 25.53 90.0014 24.802 90.2114 23.346H87.8454V21.61H92.0034ZM97.06 27.238C94.89 27.238 93.364 25.6 93.364 23.416C93.364 21.232 94.89 19.594 97.06 19.594C99.23 19.594 100.756 21.232 100.756 23.416C100.756 25.6 99.23 27.238 97.06 27.238ZM97.06 25.698C98.166 25.698 98.852 24.802 98.852 23.416C98.852 22.03 98.166 21.134 97.06 21.134C95.954 21.134 95.268 22.03 95.268 23.416C95.268 24.802 95.954 25.698 97.06 25.698ZM109.615 19.594C111.253 19.594 112.569 20.994 112.569 23.36C112.569 25.684 111.281 27.238 109.461 27.238C108.565 27.238 107.851 26.86 107.361 26.104L107.291 27H105.541V17.032H107.515V20.504C108.005 19.902 108.691 19.594 109.615 19.594ZM109.041 25.502C109.993 25.502 110.665 24.69 110.665 23.36C110.665 22.044 109.993 21.232 109.041 21.232C108.089 21.232 107.417 22.058 107.417 23.36C107.417 24.662 108.089 25.502 109.041 25.502ZM120.252 27H118.25C118.194 26.748 118.138 26.524 118.096 26.272C117.606 26.86 116.822 27.21 115.87 27.21C114.344 27.21 113.364 26.328 113.364 25.012C113.364 23.864 114.106 23.122 115.562 22.828L118.082 22.324V21.792C118.082 21.26 117.648 21.008 116.864 21.008C116.052 21.008 115.674 21.288 115.576 21.96L113.77 21.932C113.91 20.35 114.904 19.608 116.85 19.608C118.922 19.608 119.972 20.518 119.972 22.296V25.488C119.972 26.16 120.042 26.636 120.252 27ZM116.43 25.754C117.368 25.754 118.082 25.18 118.082 24.116V23.584L116.234 23.976C115.632 24.102 115.296 24.41 115.296 24.886C115.296 25.404 115.702 25.754 116.43 25.754ZM124.727 27.238C122.585 27.238 121.255 25.74 121.255 23.416C121.255 21.092 122.585 19.594 124.727 19.594C126.575 19.594 127.779 20.588 128.073 22.296H126.141C125.931 21.512 125.469 21.134 124.755 21.134C123.747 21.134 123.159 21.946 123.159 23.416C123.159 24.886 123.747 25.698 124.755 25.698C125.455 25.698 125.917 25.292 126.141 24.508H128.073C127.779 26.23 126.547 27.238 124.727 27.238ZM136.205 19.776L133.391 22.618L136.261 27H133.923L132.537 24.746L132.033 23.822L131.277 24.606V27H129.303V17.032H131.277V21.022L131.221 22.688L132.117 21.568L133.727 19.776H136.205Z" fill="white"/>
</svg>
