<svg width="175" height="44" viewBox="0 0 175 44" fill="none" xmlns="http://www.w3.org/2000/svg">
<rect width="175" height="44" rx="22" fill="#7C53A5"/>
<path d="M43.732 27.322C41.198 27.322 39.56 26.062 39.504 23.906H41.534C41.59 25.012 42.402 25.628 43.718 25.628C44.852 25.628 45.552 25.166 45.552 24.382C45.552 23.668 44.978 23.402 44.026 23.164L42.192 22.702C40.638 22.31 39.742 21.33 39.742 19.93C39.742 18.334 40.904 16.808 43.466 16.808C45.874 16.808 47.4 18.124 47.526 20.084H45.51C45.384 19.076 44.572 18.502 43.48 18.502C42.416 18.502 41.828 19.034 41.828 19.706C41.828 20.252 42.22 20.63 42.99 20.826L44.978 21.316C46.532 21.694 47.694 22.52 47.694 24.186C47.694 26.118 46.196 27.322 43.732 27.322ZM53.5192 23.64V19.776H55.4932V27H53.5612L53.5332 26.02C53.0572 26.804 52.3712 27.182 51.4472 27.182C49.9492 27.182 49.0812 26.188 49.0812 24.62V19.776H51.0552V24.172C51.0552 24.928 51.4052 25.404 52.1052 25.404C52.9452 25.404 53.5192 24.718 53.5192 23.64ZM61.249 19.594C62.887 19.594 64.203 20.994 64.203 23.36C64.203 25.684 62.915 27.238 61.095 27.238C60.199 27.238 59.485 26.86 58.995 26.104L58.925 27H57.175V17.032H59.149V20.504C59.639 19.902 60.325 19.594 61.249 19.594ZM60.675 25.502C61.627 25.502 62.299 24.69 62.299 23.36C62.299 22.044 61.627 21.232 60.675 21.232C59.723 21.232 59.051 22.058 59.051 23.36C59.051 24.662 59.723 25.502 60.675 25.502ZM68.5115 27.266C66.5375 27.266 65.4175 26.384 65.2355 24.844L67.0415 24.774C67.1535 25.488 67.6435 25.894 68.5815 25.894C69.3235 25.894 69.8835 25.642 69.8835 25.096C69.8835 24.704 69.5895 24.494 68.9315 24.368L67.5035 24.088C66.0895 23.808 65.4035 23.08 65.4035 21.974C65.4035 20.518 66.5655 19.594 68.3435 19.594C70.0935 19.594 71.2835 20.49 71.4655 21.904L69.6875 21.974C69.5895 21.344 69.0575 20.966 68.3155 20.966C67.6575 20.966 67.2375 21.274 67.2375 21.736C67.2375 22.114 67.5315 22.352 68.0495 22.464L69.6035 22.786C71.0455 23.08 71.7175 23.738 71.7175 24.858C71.7175 26.384 70.4575 27.266 68.5115 27.266ZM76.128 27.238C73.986 27.238 72.656 25.74 72.656 23.416C72.656 21.092 73.986 19.594 76.128 19.594C77.976 19.594 79.18 20.588 79.474 22.296H77.542C77.332 21.512 76.87 21.134 76.156 21.134C75.148 21.134 74.56 21.946 74.56 23.416C74.56 24.886 75.148 25.698 76.156 25.698C76.856 25.698 77.318 25.292 77.542 24.508H79.474C79.18 26.23 77.948 27.238 76.128 27.238ZM84.3163 19.58C84.4843 19.58 84.6803 19.594 84.8763 19.636V21.428C84.7363 21.414 84.6103 21.4 84.4703 21.4C83.2663 21.4 82.6783 22.086 82.6783 23.486V27H80.7043V19.776H82.6363L82.6083 20.77C82.9303 20 83.5183 19.58 84.3163 19.58ZM86.9893 18.894C86.3313 18.894 85.8693 18.418 85.8693 17.774C85.8693 17.116 86.3313 16.654 86.9893 16.654C87.6473 16.654 88.1093 17.116 88.1093 17.774C88.1093 18.418 87.6473 18.894 86.9893 18.894ZM87.9693 27H85.9953V19.776H87.9693V27ZM93.7197 19.594C95.3577 19.594 96.6737 20.994 96.6737 23.36C96.6737 25.684 95.3857 27.238 93.5657 27.238C92.6697 27.238 91.9557 26.86 91.4657 26.104L91.3957 27H89.6457V17.032H91.6197V20.504C92.1097 19.902 92.7957 19.594 93.7197 19.594ZM93.1457 25.502C94.0977 25.502 94.7697 24.69 94.7697 23.36C94.7697 22.044 94.0977 21.232 93.1457 21.232C92.1937 21.232 91.5217 22.058 91.5217 23.36C91.5217 24.662 92.1937 25.502 93.1457 25.502ZM104.832 23.64V23.976H99.5962C99.6802 25.068 100.31 25.712 101.29 25.712C101.976 25.712 102.452 25.404 102.69 24.774L104.65 24.914C104.16 26.482 102.956 27.238 101.332 27.238C98.9382 27.238 97.5662 25.572 97.5662 23.36C97.5662 21.246 98.9102 19.594 101.122 19.594C103.264 19.594 104.832 21.106 104.832 23.64ZM101.192 21.036C100.296 21.036 99.6802 21.638 99.5822 22.632H102.788C102.676 21.624 102.088 21.036 101.192 21.036ZM113.666 19.594C115.164 19.594 116.032 20.588 116.032 22.156V27H114.058V22.604C114.058 21.848 113.708 21.372 113.008 21.372C112.168 21.372 111.594 22.058 111.594 23.136V27H109.62V19.776H111.552L111.58 20.756C112.056 19.972 112.742 19.594 113.666 19.594ZM121.018 27.238C118.848 27.238 117.322 25.6 117.322 23.416C117.322 21.232 118.848 19.594 121.018 19.594C123.188 19.594 124.714 21.232 124.714 23.416C124.714 25.6 123.188 27.238 121.018 27.238ZM121.018 25.698C122.124 25.698 122.81 24.802 122.81 23.416C122.81 22.03 122.124 21.134 121.018 21.134C119.912 21.134 119.226 22.03 119.226 23.416C119.226 24.802 119.912 25.698 121.018 25.698ZM132.957 22.982L133.755 19.776H135.827L133.685 27H131.809L130.773 22.982L130.605 22.03L130.423 22.982L129.387 27H127.511L125.369 19.776H127.441L128.239 22.982L128.575 24.802L128.911 22.982L129.723 19.776H131.473L132.285 22.954L132.621 24.802L132.957 22.982Z" fill="white"/>
</svg>
