<svg width="568" height="100" viewBox="0 0 568 100" fill="none" xmlns="http://www.w3.org/2000/svg">
<g filter="url(#filter0_i_5066_12470)">
<rect width="568" height="100" rx="6" fill="#FAFAFA"/>
</g>
<rect x="1" y="1" width="566" height="98" rx="5" stroke="#7C53A5" stroke-width="2"/>
<path d="M147.168 67.638C148.456 68.03 149.072 68.828 149.072 70.102C149.072 71.908 147.854 73 145.782 73H141.19V63.032H145.684C147.504 63.032 148.61 63.928 148.61 65.468C148.61 66.504 148.092 67.26 147.168 67.638ZM145.53 64.166H142.492V67.26H145.404C146.622 67.26 147.28 66.672 147.28 65.65C147.28 64.656 146.664 64.166 145.53 64.166ZM142.492 71.866H145.684C147.042 71.866 147.742 71.264 147.742 70.102C147.742 68.954 147.028 68.352 145.684 68.352H142.492V71.866ZM154.289 73.182C152.217 73.182 150.817 71.656 150.817 69.388C150.817 67.064 152.259 65.594 154.331 65.594C156.347 65.594 157.775 67.036 157.775 69.332C157.775 71.6 156.319 73.182 154.289 73.182ZM154.289 72.104C155.689 72.104 156.487 70.97 156.487 69.332C156.487 67.694 155.689 66.672 154.289 66.672C152.917 66.672 152.105 67.75 152.105 69.388C152.105 71.026 152.931 72.104 154.289 72.104ZM162.643 73.182C160.571 73.182 159.171 71.656 159.171 69.388C159.171 67.064 160.613 65.594 162.685 65.594C164.701 65.594 166.129 67.036 166.129 69.332C166.129 71.6 164.673 73.182 162.643 73.182ZM162.643 72.104C164.043 72.104 164.841 70.97 164.841 69.332C164.841 67.694 164.043 66.672 162.643 66.672C161.271 66.672 160.459 67.75 160.459 69.388C160.459 71.026 161.285 72.104 162.643 72.104ZM174.048 65.776L171.164 68.436L174.258 73H172.746L171.094 70.48L170.324 69.192L169.232 70.186V73H167.944V63.032H169.232V67.232L169.176 68.996L170.338 67.792L172.424 65.776H174.048ZM185.976 72.048H186.186V73H185.5C184.73 73 184.31 72.65 184.254 71.936C183.792 72.636 182.868 73.182 181.636 73.182C180.166 73.182 179.214 72.412 179.214 71.082C179.214 69.892 179.928 69.052 181.678 68.828L183.526 68.59C183.876 68.548 184.044 68.38 184.044 68.044V67.764C184.044 67.008 183.54 66.644 182.42 66.644C181.384 66.644 180.866 66.966 180.782 67.932H179.508C179.634 66.336 180.656 65.58 182.518 65.58C184.31 65.58 185.346 66.308 185.346 67.89V71.418C185.346 71.894 185.5 72.048 185.976 72.048ZM181.874 72.188C183.036 72.188 184.044 71.39 184.044 70.466V69.458L181.888 69.78C180.88 69.934 180.488 70.382 180.488 71.026C180.488 71.768 181.034 72.188 181.874 72.188ZM194.416 73.182C192.344 73.182 190.944 71.656 190.944 69.388C190.944 67.064 192.386 65.594 194.458 65.594C196.474 65.594 197.902 67.036 197.902 69.332C197.902 71.6 196.446 73.182 194.416 73.182ZM194.416 72.104C195.816 72.104 196.614 70.97 196.614 69.332C196.614 67.694 195.816 66.672 194.416 66.672C193.044 66.672 192.232 67.75 192.232 69.388C192.232 71.026 193.058 72.104 194.416 72.104ZM203.344 65.594C204.856 65.594 205.794 66.462 205.794 67.988V73H204.506V68.24C204.506 67.246 204.044 66.714 203.064 66.714C202.07 66.714 201.006 67.26 201.006 68.982V73H199.718V65.776H200.922V66.798C201.412 66.028 202.28 65.594 203.344 65.594ZM214.316 69.22V69.696H208.898C208.94 71.32 209.78 72.118 211.082 72.118C212.09 72.118 212.706 71.642 213.042 70.802L214.218 70.942C213.756 72.356 212.58 73.168 211.04 73.168C208.884 73.168 207.61 71.586 207.61 69.36C207.61 67.148 208.856 65.608 211.012 65.608C213.042 65.608 214.316 66.966 214.316 69.22ZM211.026 66.658C209.878 66.658 209.038 67.358 208.912 68.772H213.112C212.944 67.4 212.202 66.658 211.026 66.658ZM223.369 66.77L221.717 66.714V71.222C221.717 71.754 221.885 71.922 222.417 71.922H223.355V73H222.039C220.919 73 220.429 72.51 220.429 71.39V66.714L219.351 66.77V65.776L220.429 65.818V63.564H221.717V65.832L223.369 65.776V66.77ZM225.545 64.544C225.041 64.544 224.691 64.194 224.691 63.704C224.691 63.214 225.041 62.878 225.545 62.878C226.035 62.878 226.385 63.214 226.385 63.704C226.385 64.194 226.035 64.544 225.545 64.544ZM226.203 73H224.915V65.776H226.203V73ZM236.114 65.594C237.528 65.594 238.326 66.364 238.326 68.044V73H237.038V68.058C237.038 67.218 236.59 66.714 235.792 66.714C234.952 66.714 234.028 67.218 234.028 69.08V73H232.74V68.058C232.74 67.218 232.292 66.714 231.494 66.714C230.654 66.714 229.73 67.288 229.73 69.15V73H228.442V65.776H229.646V66.798C230.122 66.028 230.822 65.594 231.816 65.594C232.796 65.594 233.496 66.028 233.818 66.854C234.294 66.014 235.064 65.594 236.114 65.594ZM246.855 69.22V69.696H241.437C241.479 71.32 242.319 72.118 243.621 72.118C244.629 72.118 245.245 71.642 245.581 70.802L246.757 70.942C246.295 72.356 245.119 73.168 243.579 73.168C241.423 73.168 240.149 71.586 240.149 69.36C240.149 67.148 241.395 65.608 243.551 65.608C245.581 65.608 246.855 66.966 246.855 69.22ZM243.565 66.658C242.417 66.658 241.577 67.358 241.451 68.772H245.651C245.483 67.4 244.741 66.658 243.565 66.658ZM254.886 73.182C253.08 73.182 252.058 72.384 251.89 70.774L253.108 70.718C253.234 71.726 253.836 72.146 254.942 72.146C256.118 72.146 256.678 71.698 256.678 71.012C256.678 70.438 256.286 70.116 255.53 69.962L254.074 69.654C252.674 69.36 252.072 68.716 252.072 67.694C252.072 66.434 252.982 65.608 254.76 65.608C256.37 65.608 257.49 66.308 257.7 67.82L256.426 67.876C256.286 67.05 255.74 66.63 254.718 66.63C253.808 66.63 253.262 66.938 253.262 67.582C253.262 68.044 253.528 68.366 254.382 68.548L255.782 68.856C257.28 69.192 257.91 69.85 257.91 70.9C257.91 72.314 256.79 73.182 254.886 73.182ZM265.804 69.22V69.696H260.386C260.428 71.32 261.268 72.118 262.57 72.118C263.578 72.118 264.194 71.642 264.53 70.802L265.706 70.942C265.244 72.356 264.068 73.168 262.528 73.168C260.372 73.168 259.098 71.586 259.098 69.36C259.098 67.148 260.344 65.608 262.5 65.608C264.53 65.608 265.804 66.966 265.804 69.22ZM262.514 66.658C261.366 66.658 260.526 67.358 260.4 68.772H264.6C264.432 67.4 263.69 66.658 262.514 66.658ZM270.062 73.182C268.256 73.182 267.234 72.384 267.066 70.774L268.284 70.718C268.41 71.726 269.012 72.146 270.118 72.146C271.294 72.146 271.854 71.698 271.854 71.012C271.854 70.438 271.462 70.116 270.706 69.962L269.25 69.654C267.85 69.36 267.248 68.716 267.248 67.694C267.248 66.434 268.158 65.608 269.936 65.608C271.546 65.608 272.666 66.308 272.876 67.82L271.602 67.876C271.462 67.05 270.916 66.63 269.894 66.63C268.984 66.63 268.438 66.938 268.438 67.582C268.438 68.044 268.704 68.366 269.558 68.548L270.958 68.856C272.456 69.192 273.086 69.85 273.086 70.9C273.086 72.314 271.966 73.182 270.062 73.182ZM277.13 73.182C275.324 73.182 274.302 72.384 274.134 70.774L275.352 70.718C275.478 71.726 276.08 72.146 277.186 72.146C278.362 72.146 278.922 71.698 278.922 71.012C278.922 70.438 278.53 70.116 277.774 69.962L276.318 69.654C274.918 69.36 274.316 68.716 274.316 67.694C274.316 66.434 275.226 65.608 277.004 65.608C278.614 65.608 279.734 66.308 279.944 67.82L278.67 67.876C278.53 67.05 277.984 66.63 276.962 66.63C276.052 66.63 275.506 66.938 275.506 67.582C275.506 68.044 275.772 68.366 276.626 68.548L278.026 68.856C279.524 69.192 280.154 69.85 280.154 70.9C280.154 72.314 279.034 73.182 277.13 73.182ZM282.393 64.544C281.889 64.544 281.539 64.194 281.539 63.704C281.539 63.214 281.889 62.878 282.393 62.878C282.883 62.878 283.233 63.214 283.233 63.704C283.233 64.194 282.883 64.544 282.393 64.544ZM283.051 73H281.763V65.776H283.051V73ZM288.342 73.182C286.27 73.182 284.87 71.656 284.87 69.388C284.87 67.064 286.312 65.594 288.384 65.594C290.4 65.594 291.828 67.036 291.828 69.332C291.828 71.6 290.372 73.182 288.342 73.182ZM288.342 72.104C289.742 72.104 290.54 70.97 290.54 69.332C290.54 67.694 289.742 66.672 288.342 66.672C286.97 66.672 286.158 67.75 286.158 69.388C286.158 71.026 286.984 72.104 288.342 72.104ZM297.269 65.594C298.781 65.594 299.719 66.462 299.719 67.988V73H298.431V68.24C298.431 67.246 297.969 66.714 296.989 66.714C295.995 66.714 294.931 67.26 294.931 68.982V73H293.643V65.776H294.847V66.798C295.337 66.028 296.205 65.594 297.269 65.594ZM308.165 73.182C306.359 73.182 305.337 72.384 305.169 70.774L306.387 70.718C306.513 71.726 307.115 72.146 308.221 72.146C309.397 72.146 309.957 71.698 309.957 71.012C309.957 70.438 309.565 70.116 308.809 69.962L307.353 69.654C305.953 69.36 305.351 68.716 305.351 67.694C305.351 66.434 306.261 65.608 308.039 65.608C309.649 65.608 310.769 66.308 310.979 67.82L309.705 67.876C309.565 67.05 309.019 66.63 307.997 66.63C307.087 66.63 306.541 66.938 306.541 67.582C306.541 68.044 306.807 68.366 307.661 68.548L309.061 68.856C310.559 69.192 311.189 69.85 311.189 70.9C311.189 72.314 310.069 73.182 308.165 73.182ZM316.256 66.77L314.604 66.714V71.222C314.604 71.754 314.772 71.922 315.304 71.922H316.242V73H314.926C313.806 73 313.316 72.51 313.316 71.39V66.714L312.238 66.77V65.776L313.316 65.818V63.564H314.604V65.832L316.256 65.776V66.77ZM324.172 72.048H324.382V73H323.696C322.926 73 322.506 72.65 322.45 71.936C321.988 72.636 321.064 73.182 319.832 73.182C318.362 73.182 317.41 72.412 317.41 71.082C317.41 69.892 318.124 69.052 319.874 68.828L321.722 68.59C322.072 68.548 322.24 68.38 322.24 68.044V67.764C322.24 67.008 321.736 66.644 320.616 66.644C319.58 66.644 319.062 66.966 318.978 67.932H317.704C317.83 66.336 318.852 65.58 320.714 65.58C322.506 65.58 323.542 66.308 323.542 67.89V71.418C323.542 71.894 323.696 72.048 324.172 72.048ZM320.07 72.188C321.232 72.188 322.24 71.39 322.24 70.466V69.458L320.084 69.78C319.076 69.934 318.684 70.382 318.684 71.026C318.684 71.768 319.23 72.188 320.07 72.188ZM329.216 65.58C329.356 65.58 329.482 65.594 329.608 65.608V66.854C329.412 66.84 329.272 66.84 329.146 66.84C328.194 66.84 327.13 67.582 327.074 69.052V73H325.786V65.776H326.99V67.162C327.424 66.196 328.124 65.58 329.216 65.58ZM334.398 66.77L332.746 66.714V71.222C332.746 71.754 332.914 71.922 333.446 71.922H334.384V73H333.068C331.948 73 331.458 72.51 331.458 71.39V66.714L330.38 66.77V65.776L331.458 65.818V63.564H332.746V65.832L334.398 65.776V66.77ZM336.574 64.544C336.07 64.544 335.72 64.194 335.72 63.704C335.72 63.214 336.07 62.878 336.574 62.878C337.064 62.878 337.414 63.214 337.414 63.704C337.414 64.194 337.064 64.544 336.574 64.544ZM337.232 73H335.944V65.776H337.232V73ZM343.098 65.594C344.61 65.594 345.548 66.462 345.548 67.988V73H344.26V68.24C344.26 67.246 343.798 66.714 342.818 66.714C341.824 66.714 340.76 67.26 340.76 68.982V73H339.472V65.776H340.676V66.798C341.166 66.028 342.034 65.594 343.098 65.594ZM352.824 66.896V65.776H354.028V72.762C354.028 75.086 352.684 76.024 350.64 76.024C348.96 76.024 347.784 75.38 347.588 73.91H348.848C349.044 74.722 349.66 75.002 350.682 75.002C352.166 75.002 352.782 74.4 352.782 72.888V71.95C352.334 72.65 351.522 73.154 350.514 73.154C348.554 73.154 347.364 71.516 347.364 69.276C347.364 67.092 348.652 65.622 350.486 65.622C351.536 65.622 352.39 66.112 352.824 66.896ZM350.64 72.048C351.844 72.048 352.74 71.012 352.74 69.304C352.74 67.596 351.872 66.728 350.668 66.728C349.422 66.728 348.652 67.624 348.652 69.276C348.652 70.956 349.394 72.048 350.64 72.048ZM366.418 72.048H366.628V73H365.942C365.172 73 364.752 72.65 364.696 71.936C364.234 72.636 363.31 73.182 362.078 73.182C360.608 73.182 359.656 72.412 359.656 71.082C359.656 69.892 360.37 69.052 362.12 68.828L363.968 68.59C364.318 68.548 364.486 68.38 364.486 68.044V67.764C364.486 67.008 363.982 66.644 362.862 66.644C361.826 66.644 361.308 66.966 361.224 67.932H359.95C360.076 66.336 361.098 65.58 362.96 65.58C364.752 65.58 365.788 66.308 365.788 67.89V71.418C365.788 71.894 365.942 72.048 366.418 72.048ZM362.316 72.188C363.478 72.188 364.486 71.39 364.486 70.466V69.458L362.33 69.78C361.322 69.934 360.93 70.382 360.93 71.026C360.93 71.768 361.476 72.188 362.316 72.188ZM371.49 66.77L369.838 66.714V71.222C369.838 71.754 370.006 71.922 370.538 71.922H371.476V73H370.16C369.04 73 368.55 72.51 368.55 71.39V66.714L367.472 66.77V65.776L368.55 65.818V63.564H369.838V65.832L371.49 65.776V66.77ZM383.711 70.06C383.711 71.712 382.563 72.776 380.813 72.972V75.016H379.707V72.972C377.929 72.818 376.893 71.768 376.641 69.906H377.873C378.041 71.18 378.657 71.922 380.267 71.922C381.821 71.922 382.451 71.18 382.451 70.214C382.451 69.262 381.835 68.856 380.701 68.59L379.581 68.324C377.803 67.904 376.977 67.05 376.977 65.678C376.977 64.208 377.915 63.214 379.707 63.06V61.142H380.813V63.06C382.535 63.242 383.305 64.278 383.473 65.72H382.241C382.073 64.628 381.443 64.11 380.169 64.11C378.867 64.11 378.237 64.614 378.237 65.636C378.237 66.28 378.503 66.868 379.945 67.204L381.079 67.47C383.039 67.932 383.711 68.814 383.711 70.06ZM391.239 63.032V69.514H392.849V70.648H391.239V73H389.937V70.648H385.401V69.43L390.245 63.032H391.239ZM386.731 69.514H389.937V65.328H389.909L386.731 69.514ZM398.066 73.168C395.784 73.168 394.636 71.516 394.636 68.016C394.636 64.46 395.812 62.864 398.094 62.864C400.376 62.864 401.524 64.46 401.524 68.016C401.524 71.516 400.348 73.168 398.066 73.168ZM398.094 72.034C399.578 72.034 400.194 70.858 400.194 68.016C400.194 65.188 399.564 63.998 398.08 63.998C396.596 63.998 395.966 65.188 395.966 68.016C395.966 70.858 396.61 72.034 398.094 72.034Z" fill="#2C2E30"/>
<path d="M147.848 29.912C153.248 29.912 155.72 33.2 155.72 38.456C155.72 43.616 153.152 47 147.368 47H142.04V29.912H147.848ZM144.272 45.056H147.152C151.616 45.056 153.44 42.896 153.44 38.456C153.44 33.92 151.52 31.856 147.272 31.856H144.272V45.056ZM164.261 47.312C160.709 47.312 158.309 44.696 158.309 40.808C158.309 36.824 160.781 34.304 164.333 34.304C167.789 34.304 170.237 36.776 170.237 40.712C170.237 44.6 167.741 47.312 164.261 47.312ZM164.261 45.464C166.661 45.464 168.029 43.52 168.029 40.712C168.029 37.904 166.661 36.152 164.261 36.152C161.909 36.152 160.517 38 160.517 40.808C160.517 43.616 161.933 45.464 164.261 45.464ZM179.566 34.304C182.158 34.304 183.766 35.792 183.766 38.408V47H181.558V38.84C181.558 37.136 180.766 36.224 179.086 36.224C177.382 36.224 175.558 37.16 175.558 40.112V47H173.35V34.616H175.414V36.368C176.254 35.048 177.742 34.304 179.566 34.304ZM187.936 29.672C189.016 29.672 189.688 30.56 189.688 32.24C189.688 34.472 188.464 35.84 186.784 36.272L186.496 36.344V35.024L186.664 34.976C187.816 34.64 188.224 33.728 188.224 32.6V32.48C188.104 32.48 187.984 32.504 187.864 32.504C187.024 32.504 186.448 31.928 186.448 31.112C186.448 30.272 187.048 29.672 187.936 29.672ZM199.012 36.32L196.18 36.224V43.952C196.18 44.864 196.468 45.152 197.38 45.152H198.988V47H196.732C194.812 47 193.972 46.16 193.972 44.24V36.224L192.124 36.32V34.616L193.972 34.688V30.824H196.18V34.712L199.012 34.616V36.32ZM218.595 34.616L213.651 39.176L218.955 47H216.363L213.531 42.68L212.211 40.472L210.339 42.176V47H208.131V29.912H210.339V37.112L210.243 40.136L212.235 38.072L215.811 34.616H218.595ZM227.87 34.304C230.462 34.304 232.07 35.792 232.07 38.408V47H229.862V38.84C229.862 37.136 229.07 36.224 227.39 36.224C225.686 36.224 223.862 37.16 223.862 40.112V47H221.654V34.616H223.718V36.368C224.558 35.048 226.046 34.304 227.87 34.304ZM241.136 47.312C237.584 47.312 235.184 44.696 235.184 40.808C235.184 36.824 237.656 34.304 241.208 34.304C244.664 34.304 247.112 36.776 247.112 40.712C247.112 44.6 244.616 47.312 241.136 47.312ZM241.136 45.464C243.536 45.464 244.904 43.52 244.904 40.712C244.904 37.904 243.536 36.152 241.136 36.152C238.784 36.152 237.392 38 237.392 40.808C237.392 43.616 238.808 45.464 241.136 45.464ZM261.913 41.768L263.953 34.616H266.233L262.201 47H259.993L258.241 39.608L257.617 36.488L256.945 39.608L255.073 47H252.817L248.905 34.616H251.305L253.249 41.768L253.993 44.72L254.641 41.768L256.417 34.616H258.817L260.593 41.768L261.193 44.72L261.913 41.768ZM286.921 41.768L288.961 34.616H291.241L287.209 47H285.001L283.249 39.608L282.625 36.488L281.953 39.608L280.081 47H277.825L273.913 34.616H276.312L278.257 41.768L279.001 44.72L279.648 41.768L281.425 34.616H283.825L285.601 41.768L286.201 44.72L286.921 41.768ZM299.988 34.304C302.58 34.304 304.188 35.792 304.188 38.408V47H301.98V38.84C301.98 37.136 301.188 36.224 299.508 36.224C297.804 36.224 295.98 37.16 295.98 40.112V47H293.772V29.912H295.98V36.176C296.844 34.976 298.26 34.304 299.988 34.304ZM318.798 40.52V41.336H309.51C309.582 44.12 311.022 45.488 313.254 45.488C314.982 45.488 316.038 44.672 316.614 43.232L318.63 43.472C317.838 45.896 315.822 47.288 313.182 47.288C309.486 47.288 307.302 44.576 307.302 40.76C307.302 36.968 309.438 34.328 313.134 34.328C316.614 34.328 318.798 36.656 318.798 40.52ZM313.158 36.128C311.19 36.128 309.75 37.328 309.534 39.752H316.734C316.446 37.4 315.174 36.128 313.158 36.128ZM327.8 34.28C328.04 34.28 328.256 34.304 328.472 34.328V36.464C328.136 36.44 327.896 36.44 327.68 36.44C326.048 36.44 324.224 37.712 324.128 40.232V47H321.92V34.616H323.984V36.992C324.728 35.336 325.928 34.28 327.8 34.28ZM341.532 40.52V41.336H332.244C332.316 44.12 333.756 45.488 335.988 45.488C337.716 45.488 338.772 44.672 339.348 43.232L341.364 43.472C340.572 45.896 338.556 47.288 335.916 47.288C332.22 47.288 330.036 44.576 330.036 40.76C330.036 36.968 332.172 34.328 335.868 34.328C339.348 34.328 341.532 36.656 341.532 40.52ZM335.892 36.128C333.924 36.128 332.484 37.328 332.268 39.752H339.468C339.18 37.4 337.908 36.128 335.892 36.128ZM357.051 36.32L354.219 36.224V43.952C354.219 44.864 354.507 45.152 355.419 45.152H357.027V47H354.771C352.851 47 352.011 46.16 352.011 44.24V36.224L350.163 36.32V34.616L352.011 34.688V30.824H354.219V34.712L357.051 34.616V36.32ZM364.933 47.312C361.381 47.312 358.981 44.696 358.981 40.808C358.981 36.824 361.453 34.304 365.005 34.304C368.461 34.304 370.909 36.776 370.909 40.712C370.909 44.6 368.413 47.312 364.933 47.312ZM364.933 45.464C367.333 45.464 368.701 43.52 368.701 40.712C368.701 37.904 367.333 36.152 364.933 36.152C362.581 36.152 361.189 38 361.189 40.808C361.189 43.616 362.605 45.464 364.933 45.464ZM384.666 47.312C381.57 47.312 379.818 45.944 379.53 43.184L381.618 43.088C381.834 44.816 382.866 45.536 384.762 45.536C386.778 45.536 387.738 44.768 387.738 43.592C387.738 42.608 387.066 42.056 385.77 41.792L383.274 41.264C380.874 40.76 379.842 39.656 379.842 37.904C379.842 35.744 381.402 34.328 384.45 34.328C387.21 34.328 389.13 35.528 389.49 38.12L387.306 38.216C387.066 36.8 386.13 36.08 384.378 36.08C382.818 36.08 381.882 36.608 381.882 37.712C381.882 38.504 382.338 39.056 383.802 39.368L386.202 39.896C388.77 40.472 389.85 41.6 389.85 43.4C389.85 45.824 387.93 47.312 384.666 47.312ZM398.536 36.32L395.704 36.224V43.952C395.704 44.864 395.992 45.152 396.904 45.152H398.512V47H396.256C394.336 47 393.496 46.16 393.496 44.24V36.224L391.648 36.32V34.616L393.496 34.688V30.824H395.704V34.712L398.536 34.616V36.32ZM412.106 45.368H412.466V47H411.29C409.97 47 409.25 46.4 409.154 45.176C408.362 46.376 406.778 47.312 404.666 47.312C402.146 47.312 400.514 45.992 400.514 43.712C400.514 41.672 401.738 40.232 404.738 39.848L407.906 39.44C408.506 39.368 408.794 39.08 408.794 38.504V38.024C408.794 36.728 407.93 36.104 406.01 36.104C404.234 36.104 403.346 36.656 403.202 38.312H401.018C401.234 35.576 402.986 34.28 406.178 34.28C409.25 34.28 411.026 35.528 411.026 38.24V44.288C411.026 45.104 411.29 45.368 412.106 45.368ZM405.074 45.608C407.066 45.608 408.794 44.24 408.794 42.656V40.928L405.098 41.48C403.37 41.744 402.698 42.512 402.698 43.616C402.698 44.888 403.634 45.608 405.074 45.608ZM420.753 34.28C420.993 34.28 421.209 34.304 421.425 34.328V36.464C421.089 36.44 420.849 36.44 420.633 36.44C419.001 36.44 417.177 37.712 417.081 40.232V47H414.873V34.616H416.937V36.992C417.681 35.336 418.881 34.28 420.753 34.28ZM429.637 36.32L426.805 36.224V43.952C426.805 44.864 427.093 45.152 428.005 45.152H429.613V47H427.357C425.437 47 424.597 46.16 424.597 44.24V36.224L422.749 36.32V34.616L424.597 34.688V30.824H426.805V34.712L429.637 34.616V36.32ZM438.287 42.776H436.199V42.032C436.199 39.872 436.943 38.744 439.151 37.448C440.903 36.416 441.383 35.408 441.383 34.304C441.383 32.264 439.775 31.376 437.615 31.376C435.095 31.376 433.967 32.6 433.751 35.12H431.591C431.783 31.808 433.655 29.6 437.615 29.6C441.071 29.6 443.447 31.28 443.447 34.352C443.447 36.056 442.727 37.448 440.975 38.576L439.823 39.32C438.575 40.136 438.287 40.712 438.287 42.584V42.776ZM437.279 47.36C436.439 47.36 435.815 46.784 435.815 45.968C435.815 45.152 436.439 44.576 437.279 44.576C438.119 44.576 438.743 45.152 438.743 45.968C438.743 46.784 438.119 47.36 437.279 47.36Z" fill="#4B286D"/>
<circle cx="62" cy="50" r="38" fill="white"/>
<path fill-rule="evenodd" clip-rule="evenodd" d="M54.1788 54.4797C53.9219 55.1825 53.739 55.9134 53.6404 56.6629C53.4518 58.0973 53.5667 59.6224 54.3057 60.8737C55.0447 62.125 56.5057 63.029 57.9649 62.8276C59.6842 62.5902 60.8845 61.0006 62.5245 60.4411C65.8291 59.3136 69.1032 62.6667 72.5991 62.5288C73.1019 62.509 73.6171 62.4089 74.0321 62.1298C74.697 61.6826 74.9872 60.8648 75.1277 60.0858C75.6656 57.1035 74.5589 53.9758 72.5967 51.6383C69.6365 48.1121 65.5847 45.9062 61.0703 47.6095C57.9108 48.8017 55.3174 51.3647 54.1788 54.4797Z" fill="#7C53A5"/>
<path fill-rule="evenodd" clip-rule="evenodd" d="M54.1788 54.4797C53.9219 55.1825 53.739 55.9134 53.6404 56.6629C53.4518 58.0973 53.5667 59.6224 54.3057 60.8737C55.0447 62.125 56.5057 63.029 57.9649 62.8276C59.6842 62.5902 60.8845 61.0006 62.5245 60.4411C65.8291 59.3136 69.1032 62.6667 72.5991 62.5288C73.1019 62.509 73.6171 62.4089 74.0321 62.1298C74.697 61.6826 74.9872 60.8648 75.1277 60.0858C75.6656 57.1035 74.5589 53.9758 72.5967 51.6383C69.6365 48.1121 65.5847 45.9062 61.0703 47.6095C57.9108 48.8017 55.3174 51.3647 54.1788 54.4797Z" fill="#7C53A5"/>
<path fill-rule="evenodd" clip-rule="evenodd" d="M52.8392 47.6532C53.6265 49.4505 53.232 51.3432 51.9581 51.8807C50.6843 52.4182 49.0134 51.397 48.2262 49.5998C47.4389 47.8025 47.8334 45.9098 49.1073 45.3723C50.3811 44.8348 52.052 45.856 52.8392 47.6532Z" fill="#7C53A5"/>
<path fill-rule="evenodd" clip-rule="evenodd" d="M52.8392 47.6532C53.6265 49.4505 53.232 51.3432 51.9581 51.8807C50.6843 52.4182 49.0134 51.397 48.2262 49.5998C47.4389 47.8025 47.8334 45.9098 49.1073 45.3723C50.3811 44.8348 52.052 45.856 52.8392 47.6532Z" fill="#7C53A5"/>
<path fill-rule="evenodd" clip-rule="evenodd" d="M75.3979 45.8295C74.3815 47.5123 72.5907 48.314 71.3979 47.62C70.2051 46.9261 70.0621 44.9993 71.0785 43.3164C72.0949 41.6336 73.8858 40.832 75.0786 41.5259C76.2714 42.2199 76.4144 44.1467 75.3979 45.8295Z" fill="#7C53A5"/>
<path fill-rule="evenodd" clip-rule="evenodd" d="M75.3979 45.8295C74.3815 47.5123 72.5907 48.314 71.3979 47.62C70.2051 46.9261 70.0621 44.9993 71.0785 43.3164C72.0949 41.6336 73.8858 40.832 75.0786 41.5259C76.2714 42.2199 76.4144 44.1467 75.3979 45.8295Z" fill="#7C53A5"/>
<path fill-rule="evenodd" clip-rule="evenodd" d="M59.4755 41.509C60.2382 43.7426 59.4867 46.0039 57.797 46.5597C56.1073 47.1154 54.1193 45.7552 53.3566 43.5215C52.5939 41.2877 53.3455 39.0265 55.0352 38.4707C56.7248 37.915 58.7128 39.2753 59.4755 41.509Z" fill="#7C53A5"/>
<path fill-rule="evenodd" clip-rule="evenodd" d="M59.4755 41.509C60.2382 43.7426 59.4867 46.0039 57.797 46.5597C56.1073 47.1154 54.1193 45.7552 53.3566 43.5215C52.5939 41.2877 53.3455 39.0265 55.0352 38.4707C56.7248 37.915 58.7128 39.2753 59.4755 41.509Z" fill="#7C53A5"/>
<path fill-rule="evenodd" clip-rule="evenodd" d="M68.5572 41.8025C68.0889 44.113 66.2926 45.7095 64.5447 45.3683C62.7969 45.0272 61.7596 42.8776 62.2278 40.567C62.696 38.2565 64.4925 36.66 66.2403 37.0012C67.9881 37.3424 69.0254 39.492 68.5572 41.8025Z" fill="#7C53A5"/>
<path fill-rule="evenodd" clip-rule="evenodd" d="M68.5572 41.8025C68.0889 44.113 66.2926 45.7095 64.5447 45.3683C62.7969 45.0272 61.7596 42.8776 62.2278 40.567C62.696 38.2565 64.4925 36.66 66.2403 37.0012C67.9881 37.3424 69.0254 39.492 68.5572 41.8025Z" fill="#7C53A5"/>
<path fill-rule="evenodd" clip-rule="evenodd" d="M541.942 55.7014C541.703 55.9379 541.509 56.3495 541.868 56.7598C542.226 57.17 542.765 56.9758 542.937 56.7598C542.937 56.7598 549.852 50.3324 549.853 50.3324C550.049 50.1238 550.049 49.7826 549.853 49.574L542.937 43.2838C542.742 43.0761 542.301 42.8133 541.868 43.1928C541.434 43.5723 541.746 44.0948 541.942 44.3034L546.484 49.125H533.75C533.336 49.125 533 49.4608 533 49.875V50.125C533 50.5392 533.336 50.875 533.75 50.875H546.479L541.942 55.7014Z" fill="#7C53A5"/>
<defs>
<filter id="filter0_i_5066_12470" x="0" y="0" width="568" height="101" filterUnits="userSpaceOnUse" color-interpolation-filters="sRGB">
<feFlood flood-opacity="0" result="BackgroundImageFix"/>
<feBlend mode="normal" in="SourceGraphic" in2="BackgroundImageFix" result="shape"/>
<feColorMatrix in="SourceAlpha" type="matrix" values="0 0 0 0 0 0 0 0 0 0 0 0 0 0 0 0 0 0 127 0" result="hardAlpha"/>
<feOffset dy="1"/>
<feGaussianBlur stdDeviation="0.5"/>
<feComposite in2="hardAlpha" operator="arithmetic" k2="-1" k3="1"/>
<feColorMatrix type="matrix" values="0 0 0 0 1 0 0 0 0 1 0 0 0 0 1 0 0 0 0.8 0"/>
<feBlend mode="normal" in2="shape" result="effect1_innerShadow_5066_12470"/>
</filter>
</defs>
</svg>
